<?xml version="1.0" encoding="utf-8" ?>
<svg xmlns="http://www.w3.org/2000/svg" xmlns:xlink="http://www.w3.org/1999/xlink" width="120" height="120" viewBox="0 0 120 120">
	<path transform="matrix(1 0 0 1 0 0)" d="M13.0908 0L10 0C9.21102 0 8.44339 0.0913705 7.70709 0.264107L8.1639 2.21124Q9.06431 2 10 2L13.0908 2L13.0908 0ZM1.4734 4.77263C2.29796 3.43052 3.43052 2.29796 4.77263 1.4734L5.81957 3.17748C4.74478 3.83781 3.83781 4.74478 3.17748 5.81957L1.4734 4.77263ZM0 13.0908L0 10C0 9.21102 0.0913705 8.44339 0.264107 7.70709L2.21124 8.1639Q2 9.06431 2 10L2 13.0908L0 13.0908ZM0 22.8969L0 17.0783L2 17.0783L2 22.8969L0 22.8969ZM0 33.0009L0 27.1308L2 27.1308L2 33.0009L0 33.0009ZM0 42.7384L0 36.7806L2 36.7806L2 42.7384L0 42.7384ZM0 53.2006L0 46.8612L2 46.8612L2 53.2006L0 53.2006ZM0 63.2277L0 56.7723L2 56.7723L2 63.2277L0 63.2277ZM0 73.1388L0 66.7994L2 66.7994L2 73.1388L0 73.1388ZM0 83.2194L0 77.2616L2 77.2616L2 83.2194L0 83.2194ZM0 92.8692L0 86.9991L2 86.9991L2 92.8692L0 92.8692ZM0 102.922L0 97.1031L2 97.1031L2 102.922L0 102.922ZM0.264106 112.293C0.0913701 111.557 0 110.789 0 110L0 106.909L2 106.909L2 110Q2 110.936 2.21124 111.836L0.264106 112.293ZM4.77262 118.527C3.43051 117.702 2.29795 116.569 1.4734 115.227L3.17748 114.18C3.83781 115.255 4.74478 116.162 5.81957 116.823L4.77262 118.527ZM13.0908 120L10 120C9.21102 120 8.44338 119.909 7.70709 119.736L8.16388 117.789Q9.0643 118 10 118L13.0908 118L13.0908 120ZM22.8969 120L17.0783 120L17.0783 118L22.8969 118L22.8969 120ZM33.0009 120L27.1308 120L27.1308 118L33.0009 118L33.0009 120ZM42.7384 120L36.7806 120L36.7806 118L42.7384 118L42.7384 120ZM53.2006 120L46.8612 120L46.8612 118L53.2006 118L53.2006 120ZM63.2277 120L56.7723 120L56.7723 118L63.2277 118L63.2277 120ZM73.1388 120L66.7994 120L66.7994 118L73.1388 118L73.1388 120ZM83.2194 120L77.2616 120L77.2616 118L83.2194 118L83.2194 120ZM92.8692 120L86.9991 120L86.9991 118L92.8692 118L92.8692 120ZM102.922 120L97.1031 120L97.1031 118L102.922 118L102.922 120ZM112.293 119.736C111.557 119.909 110.789 120 110 120L106.909 120L106.909 118L110 118Q110.936 118 111.836 117.789L112.293 119.736ZM118.527 115.227C117.702 116.569 116.569 117.702 115.227 118.527L114.18 116.823C115.255 116.162 116.162 115.255 116.823 114.18L118.527 115.227ZM120 106.909L120 110C120 110.789 119.909 111.557 119.736 112.293L117.789 111.836Q118 110.936 118 110L118 106.909L120 106.909ZM120 97.1031L120 102.922L118 102.922L118 97.1031L120 97.1031ZM120 86.9991L120 92.8692L118 92.8692L118 86.9991L120 86.9991ZM120 77.2616L120 83.2194L118 83.2194L118 77.2616L120 77.2616ZM120 66.7994L120 73.1388L118 73.1388L118 66.7994L120 66.7994ZM120 56.7723L120 63.2277L118 63.2277L118 56.7723L120 56.7723ZM120 46.8612L120 53.2006L118 53.2006L118 46.8612L120 46.8612ZM120 36.7806L120 42.7384L118 42.7384L118 36.7806L120 36.7806ZM120 27.1308L120 33.0009L118 33.0009L118 27.1308L120 27.1308ZM120 17.0783L120 22.8969L118 22.8969L118 17.0783L120 17.0783ZM119.736 7.70709C119.909 8.44339 120 9.21102 120 10L120 13.0908L118 13.0908L118 10Q118 9.06431 117.789 8.16388L119.736 7.70709ZM115.227 1.4734C116.569 2.29796 117.702 3.43051 118.527 4.77262L116.822 5.81957C116.162 4.74478 115.255 3.83781 114.18 3.17748L115.227 1.4734ZM106.909 0L110 0C110.789 0 111.557 0.0913703 112.293 0.264107L111.836 2.21124Q110.936 2 110 2L106.909 2L106.909 0ZM97.1031 0L102.922 0L102.922 2L97.1031 2L97.1031 0ZM86.9991 0L92.8692 0L92.8692 2L86.9991 2L86.9991 0ZM77.2616 0L83.2194 0L83.2194 2L77.2616 2L77.2616 0ZM66.7994 0L73.1388 0L73.1388 2L66.7994 2L66.7994 0ZM56.7723 0L63.2277 0L63.2277 2L56.7723 2L56.7723 0ZM46.8612 0L53.2006 0L53.2006 2L46.8612 2L46.8612 0ZM36.7806 0L42.7384 0L42.7384 2L36.7806 2L36.7806 0ZM27.1308 0L33.0009 0L33.0009 2L27.1308 2L27.1308 0ZM17.0783 0L22.8969 0L22.8969 2L17.0783 2L17.0783 0Z" fill-rule="evenodd" fill="rgb(29, 205, 159)"/>
	<defs>
		<clipPath id="clipPath1805613453">
			<path transform="matrix(1 0 0 1 44 44)" d="M0 0L32 0L32 32L0 32L0 0Z" fill-rule="nonzero"/>
		</clipPath>
	</defs>
	<g clip-path="url(#clipPath1805613453)">
		<defs>
			<clipPath id="clipPath2197628855">
				<path transform="matrix(1 0 0 1 44 44)" d="M0 0L32 0L32 32L0 32L0 0Z" fill-rule="nonzero"/>
			</clipPath>
		</defs>
		<g clip-path="url(#clipPath2197628855)">
			<path transform="matrix(1 0 0 1 47 50)" d="M18.0638 3.82729L16.4 1.19854L17.245 0.66375L16.486 1.31483Q16.2159 1 15.875 1L10.125 1Q9.78407 1 9.51401 1.31483L8.755 0.66375L9.59998 1.19854L7.93623 3.82729Q7.89767 3.88823 7.85075 3.94301Q7.45387 4.40639 6.98032 4.67197Q6.3954 5 5.75 5L2 5Q1.58579 5 1.29289 5.29289Q1 5.58579 1 6L1 18Q1 18.4142 1.29289 18.7071Q1.58579 19 2 19L24 19Q24.4142 19 24.7071 18.7071Q25 18.4142 25 18L25 6Q25 5.58579 24.7071 5.29289Q24.4142 5 24 5L20.3125 5Q19.6745 5 19.0747 4.68524Q18.5484 4.40906 18.1492 3.943Q18.1023 3.88823 18.0638 3.82729ZM19.7537 2.75771L18.9088 3.2925L19.6683 2.642Q19.8177 2.81649 20.0041 2.91429Q20.1674 3 20.3125 3L24 3Q25.2426 3 26.1213 3.87868Q27 4.75736 27 6L27 18Q27 19.2426 26.1213 20.1213Q25.2426 21 24 21L2 21Q0.757359 21 -0.12132 20.1213Q-1 19.2426 -1 18L-1 6Q-1 4.75736 -0.121321 3.87868Q0.757359 3 2 3L5.75 3Q6.02512 3 6.33175 2.64199L7.09125 3.2925L6.24627 2.75771L7.91002 0.128956Q7.94879 0.0676979 7.99599 0.0126721Q8.39739 -0.455276 8.92478 -0.7171Q9.49462 -1 10.125 -1L15.875 -1Q16.5054 -1 17.0752 -0.7171Q17.6026 -0.455276 18.004 0.0126703Q18.0512 0.0676966 18.09 0.128956L19.7537 2.75771Z" fill-rule="nonzero" fill="rgb(29, 205, 159)"/>
			<path transform="matrix(1 0 0 1 55 56)" d="M5 -1Q6.22003 -1 7.33578 -0.52808Q8.4127 -0.0725793 9.24264 0.757359Q10.0726 1.5873 10.5281 2.66422Q11 3.77997 11 5Q11 6.22003 10.5281 7.33578Q10.0726 8.4127 9.24264 9.24264Q8.4127 10.0726 7.33578 10.5281Q6.22003 11 5 11Q3.77997 11 2.66422 10.5281Q1.5873 10.0726 0.757359 9.24264Q-0.072578 8.4127 -0.528079 7.33578Q-1 6.22003 -1 5Q-1 3.77997 -0.52808 2.66422Q-0.072579 1.5873 0.757359 0.757359Q1.5873 -0.0725784 2.66422 -0.528079Q3.77997 -1 5 -1L5 -1ZM5 1Q4.18554 1 3.44333 1.31393Q2.72568 1.61747 2.17157 2.17157Q1.61747 2.72568 1.31393 3.44333Q1 4.18554 1 5Q1 5.81446 1.31393 6.55667Q1.61747 7.27433 2.17157 7.82843Q2.72568 8.38253 3.44333 8.68607Q4.18554 9 5 9Q5.81446 9 6.55667 8.68607Q7.27433 8.38253 7.82843 7.82843Q8.38253 7.27432 8.68607 6.55667Q9 5.81446 9 5Q9 4.18554 8.68607 3.44333Q8.38253 2.72568 7.82843 2.17157Q7.27432 1.61747 6.55667 1.31393Q5.81446 1 5 1L5 1Z" fill-rule="nonzero" fill="rgb(29, 205, 159)"/>
			<path transform="matrix(1 0 0 1 50.25 52.5)" d="M-1 1.375L-1 0Q-1 -0.0984914 -0.980785 -0.19509Q-0.96157 -0.291689 -0.923879 -0.382683Q-0.886188 -0.473678 -0.83147 -0.55557Q-0.776751 -0.637463 -0.707107 -0.707107Q-0.637463 -0.776751 -0.55557 -0.831469Q-0.473678 -0.886188 -0.382683 -0.923879Q-0.291689 -0.961571 -0.19509 -0.980785Q-0.0984914 -1 0 -1L1.5 -1Q1.59849 -1 1.69509 -0.980785Q1.79169 -0.96157 1.88268 -0.923879Q1.97368 -0.886188 2.05557 -0.83147Q2.13746 -0.776751 2.20711 -0.707107Q2.27675 -0.637463 2.33147 -0.55557Q2.38619 -0.473678 2.42388 -0.382683Q2.46157 -0.291689 2.48079 -0.19509Q2.5 -0.0984914 2.5 0L2.5 1.375C2.5 1.92728 2.05228 2.375 1.5 2.375C1.20133 2.375 0.933237 2.24406 0.75 2.03645C0.566763 2.24406 0.298671 2.375 0 2.375C-0.55228 2.375 -1 1.92728 -1 1.375Z" fill-rule="evenodd" fill="rgb(29, 205, 159)"/>
		</g>
	</g>
</svg>
